<svg width="136" height="73" viewBox="0 0 136 73" fill="none" xmlns="http://www.w3.org/2000/svg">
<path d="M81.1101 0.549805C81.9301 0.759805 82.7801 0.899799 83.5801 1.1998C88.2901 2.9298 91.0401 7.5298 90.4201 12.5898C89.8501 17.2198 85.9601 21.0098 81.1701 21.5998C74.7201 22.3898 68.9901 16.9698 69.4401 10.4798C69.7901 5.3798 73.4401 1.42979 78.5101 0.65979C78.6001 0.64979 78.6901 0.589805 78.7901 0.549805C79.5701 0.549805 80.3401 0.549805 81.1201 0.549805H81.1101Z" fill="#385F83"/>
<path d="M50.3501 69.1502C44.1601 69.1502 37.9801 69.1502 31.7901 69.1502C30.0801 69.1502 29.2801 68.3502 29.2901 66.6302C29.3101 64.0402 29.2001 61.4302 29.4201 58.8602C29.9401 52.5502 32.8201 47.4302 37.9201 43.7102C48.9501 35.6702 64.2401 39.8302 69.7701 52.2902C70.9801 55.0202 71.5201 57.8902 71.5301 60.8602C71.5301 62.8202 71.5301 64.7802 71.5301 66.7402C71.5301 68.3202 70.6901 69.1502 69.1001 69.1502C62.8501 69.1502 56.6001 69.1502 50.3601 69.1502H50.3501Z" fill="#385F83"/>
<path d="M74.6301 58.5699C73.6101 50.0099 69.3601 43.5999 61.8201 39.2299C62.5001 38.3199 63.1101 37.3499 63.8601 36.5099C69.3801 30.3299 76.2801 27.8199 84.3601 29.5599C92.6701 31.3499 98.0101 36.6399 100.34 44.8199C100.82 46.4999 100.94 48.3099 101.04 50.0799C101.16 52.1799 101.08 54.2799 101.06 56.3899C101.06 57.6899 100.17 58.5999 98.8701 58.5999C90.8701 58.6099 82.8601 58.5999 74.8601 58.5999C74.8001 58.5999 74.7401 58.5799 74.6301 58.5699Z" fill="#385F83"/>
<path d="M20.0301 0C19.2101 0.21 18.3601 0.349994 17.5601 0.649994C12.8501 2.37999 10.1001 6.97999 10.7201 12.04C11.2901 16.67 15.1801 20.46 19.9701 21.05C26.4201 21.84 32.1501 16.42 31.7001 9.92999C31.3501 4.82999 27.7001 0.880001 22.6301 0.110001C22.5401 0.100001 22.4501 0.04 22.3501 0C21.5701 0 20.8001 0 20.0201 0H20.0301Z" fill="#385F83"/>
<path d="M26.5101 58.0201C27.5301 49.4601 31.7801 43.0501 39.3201 38.6801C38.6401 37.7701 38.0301 36.8001 37.2801 35.9601C31.7601 29.7801 24.8601 27.2701 16.7801 29.0101C8.47006 30.8001 3.13006 36.0901 0.800064 44.2701C0.320064 45.9501 0.200059 47.7601 0.100059 49.5301C-0.0199407 51.6301 0.0600627 53.7301 0.0800627 55.8401C0.0800627 57.1401 0.970057 58.0501 2.27006 58.0501C10.2701 58.0601 18.2801 58.0501 26.2801 58.0501C26.3401 58.0501 26.4001 58.0301 26.5101 58.0201Z" fill="#385F83"/>
<path d="M60.96 21.6199C60.99 27.4399 56.28 32.1699 50.44 32.1999C44.63 32.2299 39.86 27.4999 39.85 21.6799C39.83 15.8699 44.57 11.0999 50.38 11.0899C56.2 11.0699 60.94 15.7899 60.97 21.6199H60.96Z" fill="#385F83"/>
<path d="M92.6101 70.5802C91.3601 70.5802 90.3801 70.2302 89.7001 69.5402C89.0201 68.8502 88.6801 67.8702 88.6901 66.6202C88.6901 65.8802 88.6901 65.1402 88.6901 64.4002C88.6801 62.5502 88.6701 60.6402 88.8201 58.7402C89.3801 51.9902 92.43 46.5502 97.9 42.5602C101.85 39.6802 106.47 38.1602 111.25 38.1602C120.14 38.1602 128.24 43.4802 131.89 51.7202C133.12 54.5002 133.76 57.5802 133.77 60.8602C133.77 62.8202 133.77 64.7902 133.77 66.7502C133.77 69.1102 132.28 70.5802 129.91 70.5802H92.6001H92.6101Z" fill="#385F83"/>
<path d="M111.25 39.59C119.25 39.59 126.99 44.18 130.59 52.3C131.8 55.03 132.34 57.9 132.35 60.87C132.35 62.83 132.35 64.79 132.35 66.75C132.35 68.33 131.51 69.16 129.92 69.16C127.05 69.16 124.18 69.16 121.32 69.16C117.94 69.16 114.56 69.16 111.18 69.16C107.8 69.16 104.33 69.16 100.9 69.16C98.14 69.16 95.38 69.16 92.62 69.16C90.91 69.16 90.11 68.36 90.12 66.64C90.14 64.05 90.03 61.44 90.25 58.87C90.77 52.56 93.65 47.44 98.75 43.72C102.6 40.91 106.97 39.59 111.26 39.59M111.26 36.73C106.17 36.73 101.26 38.35 97.0701 41.41C91.3301 45.59 87.99 51.55 87.41 58.63C87.25 60.59 87.26 62.53 87.27 64.41C87.27 65.14 87.27 65.88 87.27 66.61C87.26 68.25 87.74 69.58 88.7 70.55C89.66 71.52 90.98 72.01 92.63 72.01H100.91H106.05H111.19H116.26H121.33H129.93C133.08 72.01 135.21 69.9 135.22 66.75C135.22 64.78 135.22 62.82 135.22 60.85C135.2 57.37 134.53 54.1 133.22 51.14C129.34 42.39 120.73 36.73 111.27 36.73H111.26Z" fill="#F8EFE0"/>
<path d="M121.78 21.6199C121.81 27.4399 117.1 32.1699 111.26 32.1999C105.45 32.2299 100.68 27.4999 100.67 21.6799C100.65 15.8699 105.39 11.0999 111.2 11.0899C117.02 11.0699 121.76 15.7899 121.79 21.6199H121.78Z" fill="#385F83"/>
</svg>
