<svg width="72" height="26" viewBox="0 0 72 26" fill="none" xmlns="http://www.w3.org/2000/svg">
<path d="M66.6601 14.3201C65.2401 16.1001 63.8901 17.7801 62.5501 19.4701C61.0501 21.3501 59.5601 23.2401 58.0201 25.0901C57.7901 25.3701 57.3201 25.6001 56.9601 25.6001C42.2701 25.6301 27.5901 25.6201 12.9001 25.6001C12.5601 25.6001 12.0801 25.4201 11.8901 25.1601C9.40011 21.6601 6.9401 18.1301 4.4801 14.6101C4.4401 14.5501 4.41009 14.4701 4.34009 14.3201H24.2101C24.2101 14.5901 24.2101 14.8701 24.2101 15.1601C24.2101 16.6501 24.6401 17.0701 26.1501 17.0701C31.2301 17.0701 36.3201 17.0701 41.4001 17.0701C42.6401 17.0701 43.8901 17.0701 45.1301 17.0701C46.4601 17.0701 46.9201 16.6001 46.9301 15.2601C46.9301 14.9701 46.9301 14.6701 46.9301 14.3101H66.6401L66.6601 14.3201Z" fill="#385F83"/>
<path d="M68.1901 5.68004H3.03012C2.37012 2.47004 4.32013 0.0400534 7.54013 0.0400534C26.0701 0.0400534 44.6001 0.0800449 63.1201 4.48916e-05C66.0601 -0.00995511 68.7101 1.65004 68.1901 5.68004V5.68004Z" fill="#385F83"/>
<path d="M27.1101 14.2299V8.6499H44.0501V14.2299H27.1101Z" fill="#385F83"/>
<path d="M0.100098 11.3399V8.62988H24.1701V11.3399H0.100098Z" fill="#385F83"/>
<path d="M46.98 11.3499V8.6499H71.07V11.3499H46.98Z" fill="#385F83"/>
</svg>
