<svg width="51" height="69" viewBox="0 0 51 69" fill="none" xmlns="http://www.w3.org/2000/svg">
<path d="M25.61 68.7202C18.29 68.7202 10.96 68.7202 3.64004 68.7202C1.62004 68.7202 0.67004 67.7802 0.68004 65.7402C0.71004 62.6702 0.580041 59.5902 0.830041 56.5402C1.45004 49.0702 4.86004 43.0102 10.89 38.6102C23.94 29.0902 42.05 34.0102 48.59 48.7702C50.02 52.0002 50.66 55.3902 50.67 58.9102C50.68 61.2302 50.67 63.5502 50.67 65.8702C50.67 67.7402 49.67 68.7202 47.79 68.7202C40.39 68.7202 33 68.7202 25.6 68.7202H25.61Z" fill="#385F83"/>
<path d="M38.17 12.4601C38.2 19.3501 32.63 24.9501 25.71 24.9901C18.83 25.0301 13.19 19.4301 13.17 12.5401C13.15 5.66006 18.76 0.0200536 25.64 5.35958e-05C32.53 -0.0199464 38.14 5.56006 38.17 12.4601V12.4601Z" fill="#385F83"/>
</svg>
