<svg width="61" height="26" viewBox="0 0 61 26" fill="none" xmlns="http://www.w3.org/2000/svg">
<path d="M5.15991 14.2898H19.3599C19.3599 14.5898 19.3599 14.8498 19.3599 15.1098C19.3599 16.6498 19.7799 17.0598 21.3499 17.0598C24.3499 17.0598 27.3499 17.0598 30.3599 17.0598C33.6099 17.0598 36.8499 17.0598 40.0999 17.0598C41.6999 17.0598 42.0899 16.6698 42.0999 15.0498C42.0999 14.8098 42.0999 14.5798 42.0999 14.2898H56.1199C55.8099 14.6798 55.5799 14.9998 55.3299 15.2998C52.7299 18.5498 50.1199 21.7998 47.5399 25.0598C47.2199 25.4598 46.8999 25.6098 46.3899 25.6098C35.5199 25.5998 24.6499 25.6098 13.7799 25.5798C13.4299 25.5798 12.9399 25.4298 12.7599 25.1698C10.2599 21.6698 7.80991 18.1398 5.34991 14.6198C5.28991 14.5398 5.2599 14.4398 5.1799 14.2798L5.15991 14.2898Z" fill="#FFA877"/>
<path d="M3.81002 5.64C3.63002 3.97 3.77001 2.44999 5.02001 1.23999C5.95001 0.33999 7.07002 0 8.34002 0C19.21 0 30.08 0 40.96 0C44.94 0 48.91 0 52.89 0C56.3 0 58.12 2.13999 57.63 5.62999H3.81002V5.64Z" fill="#FFA877"/>
<path d="M22.26 8.58984H39.2V14.1998H22.26V8.58984Z" fill="#FFA877"/>
<path d="M0.929932 11.3101V8.6001H19.3099V11.3101H0.929932Z" fill="#FFA877"/>
<path d="M60.5799 8.60986C60.5799 9.31986 60.5799 9.98985 60.5799 10.6599C60.5799 10.8699 60.5499 11.0799 60.5299 11.3299H42.1499V8.61986H60.5799V8.60986Z" fill="#FFA877"/>
</svg>
