<svg width="103" height="70" viewBox="0 0 103 70" fill="none" xmlns="http://www.w3.org/2000/svg">
<path d="M82.07 0.549805C82.89 0.759805 83.74 0.899799 84.54 1.1998C89.25 2.9298 92 7.5298 91.38 12.5898C90.81 17.2198 86.92 21.0098 82.13 21.5998C75.68 22.3898 69.95 16.9698 70.4 10.4798C70.75 5.3798 74.4 1.42981 79.47 0.659805C79.56 0.649805 79.65 0.589805 79.75 0.549805C80.53 0.549805 81.3 0.549805 82.08 0.549805H82.07Z" fill="#385F83"/>
<path d="M51.3101 69.16C45.1201 69.16 38.9401 69.16 32.7501 69.16C31.0401 69.16 30.2401 68.36 30.2501 66.64C30.2701 64.05 30.1601 61.44 30.3801 58.87C30.9001 52.56 33.7801 47.44 38.8801 43.72C49.9101 35.68 65.2001 39.84 70.7301 52.3C71.9401 55.03 72.4801 57.9 72.4901 60.87C72.4901 62.83 72.4901 64.79 72.4901 66.75C72.4901 68.33 71.6501 69.16 70.0601 69.16C63.8101 69.16 57.5601 69.16 51.3201 69.16H51.3101Z" fill="#385F83"/>
<path d="M75.59 58.5801C74.57 50.0201 70.32 43.6101 62.78 39.2401C63.46 38.3301 64.07 37.3601 64.82 36.5201C70.34 30.3401 77.24 27.8301 85.32 29.5701C93.63 31.3601 98.97 36.6501 101.3 44.8301C101.78 46.5101 101.9 48.3201 102 50.0901C102.12 52.1901 102.04 54.2901 102.02 56.4001C102.02 57.7001 101.13 58.6101 99.83 58.6101C91.83 58.6201 83.82 58.6101 75.82 58.6101C75.76 58.6101 75.7 58.5901 75.59 58.5801Z" fill="#385F83"/>
<path d="M20.9801 0C20.1601 0.21 19.3101 0.349994 18.5101 0.649994C13.8001 2.37999 11.0501 6.97999 11.6701 12.04C12.2401 16.67 16.1301 20.46 20.9201 21.05C27.3701 21.84 33.1001 16.42 32.6501 9.92999C32.3001 4.82999 28.6501 0.880001 23.5801 0.110001C23.4901 0.100001 23.4001 0.04 23.3001 0C22.5201 0 21.7501 0 20.9701 0H20.9801Z" fill="#385F83"/>
<path d="M27.46 58.0298C28.48 49.4698 32.73 43.0598 40.27 38.6898C39.59 37.7798 38.98 36.8098 38.23 35.9698C32.71 29.7898 25.81 27.2798 17.73 29.0198C9.42001 30.8098 4.08001 36.0998 1.75001 44.2798C1.27001 45.9598 1.15001 47.7698 1.05001 49.5398C0.930013 51.6398 1.01001 53.7398 1.03001 55.8498C1.03001 57.1498 1.92001 58.0598 3.22001 58.0598C11.22 58.0698 19.23 58.0598 27.23 58.0598C27.29 58.0598 27.35 58.0398 27.46 58.0298Z" fill="#385F83"/>
<path d="M61.92 21.6302C61.95 27.4502 57.24 32.1802 51.4 32.2102C45.59 32.2402 40.82 27.5102 40.81 21.6902C40.79 15.8802 45.53 11.1102 51.34 11.1002C57.16 11.0802 61.9 15.8002 61.93 21.6302H61.92Z" fill="#385F83"/>
</svg>
