<svg width="84" height="80" viewBox="0 0 84 80" fill="none" xmlns="http://www.w3.org/2000/svg">
<path d="M60.84 0C61.79 0.24 62.77 0.41 63.69 0.75C69.13 2.75 72.31 8.07001 71.59 13.92C70.93 19.28 66.44 23.65 60.9 24.33C53.44 25.24 46.82 18.97 47.34 11.48C47.74 5.58001 51.97 1.02 57.83 0.130005C57.94 0.110005 58.04 0.0500098 58.15 0.0100098C59.05 0.0100098 59.94 0.0100098 60.84 0.0100098V0Z" fill="#385F83"/>
<path d="M25.2799 79.3102C18.1299 79.3102 10.9799 79.3102 3.81991 79.3102C1.83991 79.3102 0.919913 78.3902 0.929913 76.4002C0.949913 73.4002 0.829913 70.3902 1.06991 67.4202C1.66991 60.1202 4.99991 54.2102 10.8999 49.9102C23.6499 40.6102 41.3299 45.4202 47.7099 59.8302C49.1099 62.9802 49.7299 66.3002 49.7399 69.7302C49.7499 72.0002 49.7399 74.2602 49.7399 76.5302C49.7399 78.3502 48.7599 79.3102 46.9299 79.3102C39.7099 79.3102 32.4799 79.3102 25.2599 79.3102H25.2799Z" fill="#385F83"/>
<path d="M53.3498 67.0802C52.1698 57.1802 47.2598 49.7802 38.5498 44.7202C39.3298 43.6702 40.0398 42.5502 40.9098 41.5802C47.2898 34.4402 55.2698 31.5402 64.6098 33.5502C74.2198 35.6202 80.3898 41.7302 83.0798 51.1902C83.6298 53.1402 83.7798 55.2302 83.8898 57.2702C84.0198 59.6902 83.9298 62.1302 83.9198 64.5602C83.9198 66.0702 82.8898 67.1102 81.3798 67.1102C72.1298 67.1202 62.8698 67.1102 53.6198 67.1102C53.5498 67.1102 53.4798 67.0902 53.3498 67.0702V67.0802Z" fill="#385F83"/>
<path d="M37.55 24.3702C37.58 31.1002 32.1399 36.5602 25.3899 36.6002C18.6699 36.6402 13.1699 31.1702 13.1399 24.4402C13.1199 17.7302 18.5999 12.2203 25.3099 12.2003C32.0399 12.1803 37.52 17.6302 37.55 24.3702V24.3702Z" fill="#385F83"/>
</svg>
